<?xml version="1.0" encoding="utf-8"?>
<!-- Generator: Adobe Illustrator 19.2.1, SVG Export Plug-In . SVG Version: 6.00 Build 0)  -->
<svg height="20px" width="20px" version="1.1" id="fill" xmlns="http://www.w3.org/2000/svg" xmlns:xlink="http://www.w3.org/1999/xlink" x="0px" y="0px"
	 viewBox="0 0 48 48" style="enable-background:new 0 0 48 48;" xml:space="preserve">
<title>set1</title>
<path fill="#66bb66" d="M47.3,10.3l-2.5-2.5c-0.8-0.8-2.1-0.8-2.9,0L20.9,28.7c-0.8,0.8-2.1,0.8-2.9,0.1L6.4,17.9c-0.8-0.8-2.1-0.7-2.9,0.1
	l-2.5,2.5c-0.8,0.8-0.8,2,0,2.8c0,0,0,0,0,0L18,39.6c0.8,0.8,2.1,0.8,2.9,0l26.3-26.3C48.1,12.4,48.1,11.1,47.3,10.3z"/>
</svg>